<?xml version="1.0" standalone="no"?>
<!DOCTYPE svg PUBLIC "-//W3C//DTD SVG 20010904//EN"
 "http://www.w3.org/TR/2001/REC-SVG-20010904/DTD/svg10.dtd">
<svg version="1.0" xmlns="http://www.w3.org/2000/svg"
 width="2084.000000pt" height="671.000000pt" viewBox="0 0 2084.000000 671.000000"
 preserveAspectRatio="xMidYMid meet">

<g transform="translate(0.000000,671.000000) scale(0.100000,-0.100000)"
fill="#000000" stroke="none">
<path d="M17360 4986 c-63 -23 -267 -98 -452 -166 l-338 -123 0 -33 0 -34 620
0 621 0 -162 200 c-89 110 -164 200 -168 200 -3 -1 -58 -20 -121 -44z"/>
<path d="M2560 4261 l0 -68 80 -7 c97 -8 189 -35 235 -70 18 -14 46 -52 62
-83 l28 -58 0 -970 c0 -963 0 -970 -21 -1015 -47 -101 -133 -148 -291 -157
l-93 -6 0 -74 0 -74 833 4 c888 4 915 6 1117 57 533 136 893 507 997 1028 23
118 23 371 -1 502 -90 499 -447 871 -963 1005 -200 52 -257 55 -1154 55 l-829
0 0 -69z m1443 -86 c298 -39 516 -142 708 -334 151 -152 228 -278 293 -481 61
-187 83 -372 66 -553 -49 -525 -359 -879 -843 -963 -135 -23 -569 -16 -647 11
-77 27 -140 92 -165 170 -19 58 -20 93 -20 985 0 866 1 928 18 977 51 147 151
199 384 202 51 0 143 -6 206 -14z"/>
<path d="M6190 4261 l0 -68 68 -6 c200 -19 304 -103 332 -266 7 -46 10 -343 8
-956 l-3 -890 -23 -56 c-24 -60 -74 -119 -122 -144 -43 -22 -147 -45 -207 -45
l-53 0 0 -75 0 -75 1139 0 1139 0 6 27 c14 70 126 742 126 756 0 14 -11 17
-68 17 l-69 0 -13 -42 c-7 -24 -31 -84 -55 -134 -117 -252 -254 -382 -465
-445 -68 -20 -103 -23 -351 -26 -231 -4 -287 -2 -340 11 -79 20 -135 58 -171
117 -52 83 -58 143 -58 597 l0 412 313 0 c195 0 327 -4 352 -11 87 -24 120
-88 151 -289 l17 -110 88 0 89 0 0 480 0 480 -89 0 -88 0 -6 -97 c-9 -168 -52
-239 -157 -262 -31 -7 -173 -11 -360 -11 l-310 0 0 358 c0 378 7 447 49 530
29 58 91 106 163 128 55 17 95 19 308 19 271 0 323 -8 450 -68 99 -46 206
-158 262 -276 l43 -90 68 -1 67 0 0 290 0 290 -1115 0 -1115 0 0 -69z"/>
<path d="M9140 4260 l0 -70 48 0 c121 0 186 -52 269 -215 27 -55 274 -588 548
-1185 274 -597 503 -1091 508 -1098 7 -9 35 -12 94 -10 l84 3 378 940 c508
1264 550 1355 666 1463 57 53 142 102 178 102 14 0 17 10 17 70 l0 70 -455 0
-455 0 0 -70 0 -69 38 -6 c20 -4 68 -16 107 -27 56 -16 79 -29 116 -67 85 -84
88 -194 15 -412 -43 -124 -597 -1469 -606 -1469 -10 0 -720 1615 -748 1700
-59 184 1 259 221 277 l77 6 0 68 0 69 -550 0 -550 0 0 -70z"/>
<path d="M12570 4262 l0 -69 70 -7 c124 -11 200 -47 240 -111 50 -81 50 -78
50 -1038 0 -987 0 -986 -60 -1080 -48 -77 -150 -127 -257 -127 l-43 0 0 -75 0
-75 590 0 590 0 0 75 0 75 -52 0 c-60 0 -165 23 -207 45 -46 23 -92 76 -120
135 l-26 55 -3 429 -3 428 133 -4 c181 -7 212 -22 308 -153 24 -33 170 -217
324 -410 308 -386 461 -549 561 -602 111 -58 148 -64 408 -70 l237 -6 0 75 0
75 -45 6 c-62 6 -157 55 -235 120 -107 88 -333 333 -629 682 l-280 330 103 27
c291 75 471 217 546 429 25 74 41 209 34 289 -30 318 -218 507 -590 591 -97
22 -114 23 -871 26 l-773 4 0 -69z m1425 -97 c91 -25 170 -72 230 -136 83 -91
117 -198 117 -374 0 -247 -80 -398 -255 -480 -118 -55 -190 -66 -485 -72
l-263 -6 3 424 c4 404 5 427 25 481 38 101 87 148 183 175 64 18 364 10 445
-12z"/>
<path d="M15850 4262 l0 -68 93 -11 c120 -14 186 -42 241 -104 80 -89 77 -45
74 -1099 l-3 -925 -24 -52 c-46 -103 -147 -161 -298 -170 l-83 -6 0 -73 0 -74
1143 0 1144 0 62 373 c34 204 65 384 68 400 l5 27 -69 0 -70 0 -23 -62 c-90
-250 -234 -436 -398 -515 -123 -59 -219 -73 -508 -73 -228 0 -258 2 -320 21
-55 17 -78 31 -115 68 -84 86 -83 83 -87 599 l-3 453 333 -3 c298 -3 336 -5
366 -21 58 -32 81 -84 108 -247 25 -157 12 -140 109 -140 l85 0 0 480 0 480
-84 0 -83 0 -6 -87 c-11 -152 -39 -218 -110 -255 -41 -22 -51 -23 -379 -26
l-338 -3 0 373 c0 406 4 448 56 536 30 51 95 95 167 114 84 21 501 18 598 -5
190 -44 318 -146 405 -321 l47 -96 69 0 68 0 0 290 0 290 -1120 0 -1120 0 0
-68z"/>
</g>
</svg>
